<svg width="16" height="16" viewBox="0 0 16 16" fill="none" xmlns="http://www.w3.org/2000/svg">
    <g clip-path="url(#clip0_2318_41780)">
        <path d="M7.99966 0C3.58197 0 0 3.58197 0 7.99966C0 12.4174 3.58197 16 7.99966 16C12.4174 16 16 12.4174 16 7.99966C16 3.58197 12.4174 0 7.99966 0ZM9.66501 12.3984C9.25325 12.5609 8.92546 12.6842 8.67962 12.7695C8.40386 12.8596 8.11497 12.9028 7.82493 12.8975C7.32648 12.8975 6.93841 12.7756 6.66209 12.5325C6.38578 12.2894 6.2483 11.9812 6.2483 11.6067C6.2483 11.4611 6.25845 11.3121 6.27877 11.1604C6.30389 10.9876 6.33711 10.816 6.37833 10.6463L6.89371 8.8259C6.93909 8.65117 6.97837 8.48525 7.00952 8.33083C7.04068 8.17507 7.05558 8.03217 7.05558 7.90214C7.05558 7.67052 7.00749 7.50798 6.912 7.41655C6.81515 7.32512 6.63297 7.28042 6.3614 7.28042C6.22866 7.28042 6.09185 7.30006 5.95166 7.34137C5.81282 7.38404 5.69227 7.42264 5.5934 7.46057L5.72952 6.89981C6.06679 6.76233 6.38984 6.64449 6.69799 6.54696C6.97977 6.45269 7.27452 6.40288 7.57164 6.39932C8.06671 6.39932 8.44868 6.51987 8.71754 6.75826C8.98506 6.99733 9.11983 7.30819 9.11983 7.69016C9.11983 7.7694 9.11035 7.90891 9.09206 8.10802C9.07617 8.29408 9.04169 8.47808 8.98912 8.65727L8.47644 10.4723C8.43049 10.6365 8.39275 10.8028 8.36334 10.9707C8.33543 11.1105 8.3189 11.2523 8.3139 11.3947C8.3139 11.6358 8.36741 11.8004 8.47577 11.8877C8.58277 11.9751 8.77037 12.0191 9.03585 12.0191C9.16114 12.0191 9.30133 11.9968 9.45981 11.9534C9.61693 11.9101 9.73071 11.8715 9.8025 11.8383L9.66501 12.3984ZM9.57426 5.03128C9.34115 5.25111 9.03112 5.37074 8.71077 5.36449C8.37486 5.36449 8.08499 5.25342 7.84389 5.03128C7.72924 4.93043 7.63765 4.80606 7.57536 4.66664C7.51307 4.52722 7.48154 4.37602 7.48292 4.22332C7.48292 3.9084 7.60482 3.6375 7.84389 3.41333C8.07751 3.19176 8.38884 3.07087 8.71077 3.07674C9.04736 3.07674 9.33587 3.18849 9.57426 3.41333C9.81333 3.6375 9.9332 3.9084 9.9332 4.22332C9.9332 4.5396 9.81333 4.80914 9.57426 5.03128Z" fill="#CC7108"/>
    </g>
    <defs>
        <clipPath id="clip0_2318_41780">
            <rect width="16" height="16" fill="white"/>
        </clipPath>
    </defs>
</svg>
