<svg width="24" height="24" viewBox="0 0 24 24" fill="none" xmlns="http://www.w3.org/2000/svg">
    <g clip-path="url(#clip0_3428_6784)">
        <path d="M10.3912 0.9375H3C2.4533 0.938491 1.92927 1.15611 1.54269 1.54269C1.15611 1.92927 0.938491 2.4533 0.9375 3V10.3912C0.9375 10.5404 0.996763 10.6835 1.10225 10.789C1.20774 10.8945 1.35082 10.9537 1.5 10.9537H8.89125C9.43826 10.9537 9.96286 10.7365 10.3497 10.3497C10.7365 9.96286 10.9537 9.43826 10.9537 8.89125V1.5C10.9537 1.35082 10.8945 1.20774 10.789 1.10225C10.6835 0.996763 10.5404 0.9375 10.3912 0.9375ZM9.82875 8.89125C9.82875 9.01436 9.8045 9.13627 9.75739 9.25002C9.71027 9.36376 9.64122 9.46711 9.55416 9.55416C9.46711 9.64122 9.36376 9.71027 9.25002 9.75739C9.13627 9.8045 9.01436 9.82875 8.89125 9.82875H2.0625V3C2.0625 2.75136 2.16127 2.5129 2.33709 2.33709C2.5129 2.16127 2.75136 2.0625 3 2.0625H9.82875V8.89125ZM8.89125 13.0463H1.5C1.35082 13.0463 1.20774 13.1055 1.10225 13.211C0.996763 13.3165 0.9375 13.4596 0.9375 13.6088V21C0.938491 21.5467 1.15611 22.0707 1.54269 22.4573C1.92927 22.8439 2.4533 23.0615 3 23.0625H10.3912C10.5404 23.0625 10.6835 23.0032 10.789 22.8977C10.8945 22.7923 10.9537 22.6492 10.9537 22.5V15.1088C10.9537 14.5617 10.7365 14.0371 10.3497 13.6503C9.96286 13.2635 9.43826 13.0463 8.89125 13.0463ZM9.82875 21.9375H3C2.75136 21.9375 2.5129 21.8387 2.33709 21.6629C2.16127 21.4871 2.0625 21.2486 2.0625 21V14.1713H8.89125C9.01436 14.1713 9.13627 14.1955 9.25002 14.2426C9.36376 14.2897 9.46711 14.3588 9.55416 14.4458C9.64122 14.5329 9.71027 14.6362 9.75739 14.75C9.8045 14.8637 9.82875 14.9856 9.82875 15.1088V21.9375ZM22.5 13.0463H15.1088C14.5617 13.0463 14.0371 13.2635 13.6503 13.6503C13.2635 14.0371 13.0463 14.5617 13.0463 15.1088V22.5C13.0463 22.6492 13.1055 22.7923 13.211 22.8977C13.3165 23.0032 13.4596 23.0625 13.6088 23.0625H21C21.5467 23.0615 22.0707 22.8439 22.4573 22.4573C22.8439 22.0707 23.0615 21.5467 23.0625 21V13.6088C23.0625 13.4596 23.0032 13.3165 22.8977 13.211C22.7923 13.1055 22.6492 13.0463 22.5 13.0463ZM21.9375 21C21.9375 21.2486 21.8387 21.4871 21.6629 21.6629C21.4871 21.8387 21.2486 21.9375 21 21.9375H14.1713V15.1088C14.1713 14.8601 14.27 14.6217 14.4458 14.4458C14.6217 14.27 14.8601 14.1713 15.1088 14.1713H21.9375V21ZM15.1088 8.01H15.99V8.89125C15.99 9.43826 16.2073 9.96286 16.5941 10.3497C16.9809 10.7365 17.5055 10.9537 18.0525 10.9537C18.5995 10.9537 19.1241 10.7365 19.5109 10.3497C19.8977 9.96286 20.115 9.43826 20.115 8.89125V8.01H21C21.547 8.01 22.0716 7.7927 22.4584 7.40591C22.8452 7.01911 23.0625 6.49451 23.0625 5.9475C23.0625 5.40049 22.8452 4.87589 22.4584 4.48909C22.0716 4.1023 21.547 3.885 21 3.885H20.115V3C20.115 2.45299 19.8977 1.92839 19.5109 1.54159C19.1241 1.1548 18.5995 0.9375 18.0525 0.9375C17.5055 0.9375 16.9809 1.1548 16.5941 1.54159C16.2073 1.92839 15.99 2.45299 15.99 3V3.885H15.1088C14.5617 3.885 14.0371 4.1023 13.6503 4.48909C13.2635 4.87589 13.0463 5.40049 13.0463 5.9475C13.0463 6.49451 13.2635 7.01911 13.6503 7.40591C14.0371 7.7927 14.5617 8.01 15.1088 8.01ZM15.1088 5.01H16.5525C16.7017 5.01 16.8448 4.95074 16.9502 4.84525C17.0557 4.73976 17.115 4.59668 17.115 4.4475V3C17.115 2.75136 17.2138 2.5129 17.3896 2.33709C17.5654 2.16127 17.8039 2.0625 18.0525 2.0625C18.3011 2.0625 18.5396 2.16127 18.7154 2.33709C18.8912 2.5129 18.99 2.75136 18.99 3V4.4475C18.99 4.59668 19.0493 4.73976 19.1548 4.84525C19.2602 4.95074 19.4033 5.01 19.5525 5.01H21C21.2486 5.01 21.4871 5.10877 21.6629 5.28459C21.8387 5.4604 21.9375 5.69886 21.9375 5.9475C21.9375 6.19614 21.8387 6.4346 21.6629 6.61041C21.4871 6.78623 21.2486 6.885 21 6.885H19.5525C19.4033 6.885 19.2602 6.94426 19.1548 7.04975C19.0493 7.15524 18.99 7.29832 18.99 7.4475V8.89125C18.99 9.13989 18.8912 9.37835 18.7154 9.55416C18.5396 9.72998 18.3011 9.82875 18.0525 9.82875C17.8039 9.82875 17.5654 9.72998 17.3896 9.55416C17.2138 9.37835 17.115 9.13989 17.115 8.89125V7.4475C17.115 7.29832 17.0557 7.15524 16.9502 7.04975C16.8448 6.94426 16.7017 6.885 16.5525 6.885H15.1088C14.8601 6.885 14.6217 6.78623 14.4458 6.61041C14.27 6.4346 14.1713 6.19614 14.1713 5.9475C14.1713 5.69886 14.27 5.4604 14.4458 5.28459C14.6217 5.10877 14.8601 5.01 15.1088 5.01Z" fill="black"/>
    </g>
    <defs>
        <clipPath id="clip0_3428_6784">
            <rect width="24" height="24" fill="white"/>
        </clipPath>
    </defs>
</svg>
