<svg width="24" height="24" viewBox="0 0 24 24" fill="none" xmlns="http://www.w3.org/2000/svg">
    <g clip-path="url(#clip0_3428_7228)">
        <path d="M10.3912 0.9375H3C2.4533 0.938491 1.92927 1.15611 1.54269 1.54269C1.15611 1.92927 0.938491 2.4533 0.9375 3V10.3912C0.9375 10.5404 0.996763 10.6835 1.10225 10.789C1.20774 10.8945 1.35082 10.9537 1.5 10.9537H8.89125C9.43826 10.9537 9.96286 10.7365 10.3497 10.3497C10.7365 9.96286 10.9537 9.43826 10.9537 8.89125V1.5C10.9537 1.35082 10.8945 1.20774 10.789 1.10225C10.6835 0.996763 10.5404 0.9375 10.3912 0.9375ZM8.89125 13.0463H1.5C1.35082 13.0463 1.20774 13.1055 1.10225 13.211C0.996763 13.3165 0.9375 13.4596 0.9375 13.6088V21C0.938491 21.5467 1.15611 22.0707 1.54269 22.4573C1.92927 22.8439 2.4533 23.0615 3 23.0625H10.3912C10.5404 23.0625 10.6835 23.0032 10.789 22.8977C10.8945 22.7923 10.9537 22.6492 10.9537 22.5V15.1088C10.9537 14.5617 10.7365 14.0371 10.3497 13.6503C9.96286 13.2635 9.43826 13.0463 8.89125 13.0463ZM22.5 13.0463H15.1088C14.5617 13.0463 14.0371 13.2635 13.6503 13.6503C13.2635 14.0371 13.0463 14.5617 13.0463 15.1088V22.5C13.0463 22.6492 13.1055 22.7923 13.211 22.8977C13.3165 23.0032 13.4596 23.0625 13.6088 23.0625H21C21.5467 23.0615 22.0707 22.8439 22.4573 22.4573C22.8439 22.0707 23.0615 21.5467 23.0625 21V13.6088C23.0625 13.4596 23.0032 13.3165 22.8977 13.211C22.7923 13.1055 22.6492 13.0463 22.5 13.0463ZM15.1088 8.01H15.99V8.89125C15.99 9.43826 16.2073 9.96286 16.5941 10.3497C16.9809 10.7365 17.5055 10.9537 18.0525 10.9537C18.5995 10.9537 19.1241 10.7365 19.5109 10.3497C19.8977 9.96286 20.115 9.43826 20.115 8.89125V8.01H21C21.547 8.01 22.0716 7.7927 22.4584 7.40591C22.8452 7.01911 23.0625 6.49451 23.0625 5.9475C23.0625 5.40049 22.8452 4.87589 22.4584 4.48909C22.0716 4.1023 21.547 3.885 21 3.885H20.115V3C20.115 2.45299 19.8977 1.92839 19.5109 1.54159C19.1241 1.1548 18.5995 0.9375 18.0525 0.9375C17.5055 0.9375 16.9809 1.1548 16.5941 1.54159C16.2073 1.92839 15.99 2.45299 15.99 3V3.885H15.1088C14.5617 3.885 14.0371 4.1023 13.6503 4.48909C13.2635 4.87589 13.0463 5.40049 13.0463 5.9475C13.0463 6.49451 13.2635 7.01911 13.6503 7.40591C14.0371 7.7927 14.5617 8.01 15.1088 8.01Z" fill="#CC7108"/>
    </g>
    <defs>
        <clipPath id="clip0_3428_7228">
            <rect width="24" height="24" fill="white"/>
        </clipPath>
    </defs>
</svg>
