<svg width="28" height="28" viewBox="0 0 28 28" fill="none" xmlns="http://www.w3.org/2000/svg">
    <circle cx="14" cy="14" r="14" fill="white"/>
    <path d="M17.842 14.4702C17.8233 12.5705 19.3915 11.6592 19.4613 11.6142C18.58 10.3242 17.2075 10.148 16.7185 10.1277C15.5508 10.0092 14.4393 10.8155 13.846 10.8155C13.255 10.8155 12.34 10.145 11.371 10.163C10.099 10.1817 8.92527 10.9025 8.26977 12.0425C6.94677 14.3375 7.93077 17.7387 9.22002 19.6002C9.85002 20.5115 10.6015 21.5352 11.5878 21.4977C12.5373 21.4602 12.8965 20.8835 14.0448 20.8835C15.193 20.8835 15.5163 21.4985 16.5213 21.4797C17.5435 21.4602 18.1908 20.5505 18.8163 19.637C19.54 18.5795 19.8378 17.5557 19.8558 17.5032C19.8333 17.4935 17.8623 16.7382 17.8428 14.4695L17.842 14.4702ZM15.9535 8.8955C16.477 8.26025 16.8303 7.379 16.7335 6.5C15.9798 6.53 15.0655 7.0025 14.5248 7.63625C14.0395 8.19875 13.6143 9.095 13.7283 9.95675C14.5698 10.0227 15.4293 9.52925 15.9535 8.8955Z" fill="#1B1B1B"/>
</svg>
