<svg width="24" height="25" viewBox="0 0 24 25" fill="none" xmlns="http://www.w3.org/2000/svg">
    <g clip-path="url(#clip0_3263_6137)">
        <path d="M10 3.5H14C16.1217 3.5 18.1566 4.34285 19.6569 5.84315C21.1571 7.34344 22 9.37827 22 11.5C22 13.6217 21.1571 15.6566 19.6569 17.1569C18.1566 18.6571 16.1217 19.5 14 19.5V23C9 21 2 18 2 11.5C2 9.37827 2.84285 7.34344 4.34315 5.84315C5.84344 4.34285 7.87827 3.5 10 3.5ZM12 17.5H14C14.7879 17.5 15.5681 17.3448 16.2961 17.0433C17.0241 16.7417 17.6855 16.2998 18.2426 15.7426C18.7998 15.1855 19.2417 14.5241 19.5433 13.7961C19.8448 13.0681 20 12.2879 20 11.5C20 10.7121 19.8448 9.93185 19.5433 9.2039C19.2417 8.47595 18.7998 7.81451 18.2426 7.25736C17.6855 6.70021 17.0241 6.25825 16.2961 5.95672C15.5681 5.65519 14.7879 5.5 14 5.5H10C8.4087 5.5 6.88258 6.13214 5.75736 7.25736C4.63214 8.38258 4 9.9087 4 11.5C4 15.11 6.462 17.466 12 19.98V17.5Z" fill="#CC7108"/>
    </g>
    <defs>
        <clipPath id="clip0_3263_6137">
            <rect width="24" height="24" fill="white" transform="translate(0 0.5)"/>
        </clipPath>
    </defs>
</svg>
