<svg width="12" height="12" viewBox="0 0 12 12" fill="none" xmlns="http://www.w3.org/2000/svg">
    <g clip-path="url(#clip0_2491_83259)">
        <path d="M7.79445 4.34763C7.63923 4.34763 7.51342 4.47344 7.51342 4.62866V9.94012C7.51342 10.0952 7.63923 10.2211 7.79445 10.2211C7.94969 10.2211 8.07548 10.0952 8.07548 9.94012V4.62866C8.07548 4.47344 7.94969 4.34763 7.79445 4.34763ZM4.4783 4.34763C4.32308 4.34763 4.19727 4.47344 4.19727 4.62866V9.94012C4.19727 10.0952 4.32308 10.2211 4.4783 10.2211C4.63354 10.2211 4.75933 10.0952 4.75933 9.94012V4.62866C4.75933 4.47344 4.63354 4.34763 4.4783 4.34763Z" fill="black"/>
        <path d="M2.06184 3.57248V10.4965C2.06184 10.9057 2.21191 11.29 2.47405 11.5658C2.60313 11.7026 2.75875 11.8117 2.93139 11.8863C3.10403 11.961 3.29008 11.9996 3.47817 12H8.79537C8.98346 11.9997 9.16952 11.961 9.34216 11.8863C9.51481 11.8117 9.67042 11.7026 9.79949 11.5658C10.0617 11.29 10.2117 10.9057 10.2117 10.4965V3.57248C10.7328 3.43416 11.0705 2.93073 11.0008 2.39601C10.931 1.86138 10.4755 1.46147 9.93626 1.46136H8.49742V1.11007C8.49823 0.963836 8.46998 0.818893 8.41431 0.683663C8.35864 0.548432 8.27667 0.425607 8.17314 0.322319C8.06959 0.219041 7.94655 0.137365 7.81117 0.0820349C7.67578 0.0267043 7.53076 -0.00117838 7.38451 5.91105e-06H4.88905C4.7428 -0.00118211 4.59777 0.0266988 4.46238 0.0820294C4.327 0.13736 4.20395 0.219038 4.1004 0.322319C3.99687 0.425607 3.91489 0.548432 3.85923 0.683663C3.80356 0.818893 3.77531 0.963836 3.77612 1.11007V1.46136H2.3373C1.79806 1.46147 1.3426 1.86138 1.27276 2.39601C1.20307 2.93073 1.54072 3.43416 2.06184 3.57248ZM8.79537 11.4379H3.4782C2.99769 11.4379 2.6239 11.0251 2.6239 10.4965V3.59719H9.64964V10.4965C9.64964 11.0252 9.27587 11.4379 8.79537 11.4379ZM4.33818 1.11007C4.33726 1.03762 4.35091 0.96572 4.37831 0.898641C4.40571 0.831562 4.44631 0.770671 4.49769 0.719583C4.54906 0.668465 4.61017 0.628183 4.67739 0.601125C4.74462 0.574068 4.8166 0.560785 4.88905 0.562066H7.38451C7.45697 0.560785 7.52894 0.574068 7.59617 0.601125C7.6634 0.628183 7.72451 0.668465 7.77587 0.719583C7.82726 0.770668 7.86786 0.831559 7.89526 0.898639C7.92265 0.965719 7.93629 1.03762 7.93536 1.11007V1.46136H4.33818V1.11007ZM2.3373 2.02342H9.93632C10.2157 2.02342 10.4422 2.2499 10.4422 2.52927C10.4422 2.80865 10.2157 3.03513 9.93632 3.03513H2.33727C2.0579 3.03513 1.83142 2.80865 1.83142 2.52927C1.83142 2.2499 2.05793 2.02342 2.3373 2.02342Z" fill="black"/>
        <path d="M6.1365 4.34763C5.98129 4.34763 5.85547 4.47344 5.85547 4.62866V9.94012C5.85547 10.0952 5.98129 10.2211 6.1365 10.2211C6.29174 10.2211 6.41753 10.0952 6.41753 9.94012V4.62866C6.41753 4.47344 6.29174 4.34763 6.1365 4.34763Z" fill="black"/>
    </g>
    <defs>
        <clipPath id="clip0_2491_83259">
            <rect width="12" height="12" fill="white"/>
        </clipPath>
    </defs>
</svg>
