<svg width="48" height="36" viewBox="0 0 48 36" fill="none" xmlns="http://www.w3.org/2000/svg">
    <rect x="0.5" y="0.5" width="47" height="35" rx="7.5" fill="#F5F5F7"/>
    <rect x="0.5" y="0.5" width="47" height="35" rx="7.5" stroke="#E7E7E7"/>
    <rect width="16" height="16" transform="translate(16 10)" fill="#F5F5F7"/>
    <path d="M30.667 14.8333H26.667C26.3937 14.8333 26.167 14.6066 26.167 14.3333C26.167 14.06 26.3937 13.8333 26.667 13.8333H30.667C30.9403 13.8333 31.167 14.06 31.167 14.3333C31.167 14.6066 30.9403 14.8333 30.667 14.8333Z" fill="#1B1B1B"/>
    <path d="M19.9997 14.8333H17.333C17.0597 14.8333 16.833 14.6066 16.833 14.3333C16.833 14.06 17.0597 13.8333 17.333 13.8333H19.9997C20.273 13.8333 20.4997 14.06 20.4997 14.3333C20.4997 14.6066 20.273 14.8333 19.9997 14.8333Z" fill="#1B1B1B"/>
    <path d="M22.6663 17.1667C21.1063 17.1667 19.833 15.8933 19.833 14.3333C19.833 12.7733 21.1063 11.5 22.6663 11.5C24.2263 11.5 25.4997 12.7733 25.4997 14.3333C25.4997 15.8933 24.2263 17.1667 22.6663 17.1667ZM22.6663 12.5C21.653 12.5 20.833 13.32 20.833 14.3333C20.833 15.3467 21.653 16.1667 22.6663 16.1667C23.6797 16.1667 24.4997 15.3467 24.4997 14.3333C24.4997 13.32 23.6797 12.5 22.6663 12.5Z" fill="#1B1B1B"/>
    <path d="M30.6667 22.1667H28C27.7267 22.1667 27.5 21.94 27.5 21.6667C27.5 21.3934 27.7267 21.1667 28 21.1667H30.6667C30.94 21.1667 31.1667 21.3934 31.1667 21.6667C31.1667 21.94 30.94 22.1667 30.6667 22.1667Z" fill="#1B1B1B"/>
    <path d="M21.333 22.1667H17.333C17.0597 22.1667 16.833 21.94 16.833 21.6667C16.833 21.3934 17.0597 21.1667 17.333 21.1667H21.333C21.6063 21.1667 21.833 21.3934 21.833 21.6667C21.833 21.94 21.6063 22.1667 21.333 22.1667Z" fill="#1B1B1B"/>
    <path d="M25.3333 24.5C23.7733 24.5 22.5 23.2266 22.5 21.6666C22.5 20.1066 23.7733 18.8333 25.3333 18.8333C26.8933 18.8333 28.1667 20.1066 28.1667 21.6666C28.1667 23.2266 26.8933 24.5 25.3333 24.5ZM25.3333 19.8333C24.32 19.8333 23.5 20.6533 23.5 21.6666C23.5 22.68 24.32 23.5 25.3333 23.5C26.3467 23.5 27.1667 22.68 27.1667 21.6666C27.1667 20.6533 26.3467 19.8333 25.3333 19.8333Z" fill="#1B1B1B"/>
</svg>
