<svg width="28" height="28" viewBox="0 0 28 28" fill="none" xmlns="http://www.w3.org/2000/svg">
    <circle cx="14" cy="14" r="14" fill="white"/>
    <path d="M21.3541 12.5311H20.75V12.5H14V15.5H18.2386C17.6203 17.2464 15.9586 18.5 14 18.5C11.5149 18.5 9.5 16.4851 9.5 14C9.5 11.5149 11.5149 9.5 14 9.5C15.1471 9.5 16.1908 9.93275 16.9854 10.6396L19.1068 8.51825C17.7673 7.26987 15.9755 6.5 14 6.5C9.85812 6.5 6.5 9.85812 6.5 14C6.5 18.1419 9.85812 21.5 14 21.5C18.1419 21.5 21.5 18.1419 21.5 14C21.5 13.4971 21.4482 13.0062 21.3541 12.5311Z" fill="#FFBB0D"/>
    <path d="M7.36426 10.5091L9.82838 12.3162C10.4951 10.6655 12.1099 9.5 13.9995 9.5C15.1466 9.5 16.1903 9.93275 16.9849 10.6396L19.1063 8.51825C17.7668 7.26987 15.975 6.5 13.9995 6.5C11.1188 6.5 8.62051 8.12637 7.36426 10.5091Z" fill="#FF3D00"/>
    <path d="M14.0001 21.5C15.9374 21.5 17.6976 20.7586 19.0285 19.553L16.7072 17.5888C15.9289 18.1807 14.9779 18.5008 14.0001 18.5C12.0494 18.5 10.393 17.2561 9.76899 15.5203L7.32324 17.4046C8.56449 19.8335 11.0852 21.5 14.0001 21.5Z" fill="#4CAF50"/>
    <path d="M21.3541 12.5311H20.75V12.5H14V15.5H18.2386C17.9428 16.3312 17.41 17.0574 16.706 17.5891L16.7071 17.5884L19.0284 19.5526C18.8641 19.7019 21.5 17.75 21.5 14C21.5 13.4971 21.4482 13.0063 21.3541 12.5311Z" fill="#1976D2"/>
</svg>
