<svg width="24" height="24" viewBox="0 0 24 24" fill="none" xmlns="http://www.w3.org/2000/svg">
    <path fill-rule="evenodd" clip-rule="evenodd" d="M10.024 2.74598C10.6061 2.34785 11.2948 2.13483 12 2.13483C12.7052 2.13483 13.3939 2.34785 13.976 2.74598L20.476 7.19398C20.9456 7.51522 21.3299 7.94613 21.5954 8.44936C21.861 8.95259 21.9999 9.51298 22 10.082V18.5C22 19.4282 21.6313 20.3185 20.9749 20.9749C20.3185 21.6312 19.4283 22 18.5 22H5.5C4.57174 22 3.6815 21.6312 3.02513 20.9749C2.36875 20.3185 2 19.4282 2 18.5V10.082C2.00014 9.51298 2.139 8.95259 2.40455 8.44936C2.67011 7.94613 3.05435 7.51522 3.524 7.19398L10.024 2.74598ZM9.5 17.5C9.36739 17.5 9.24021 17.5527 9.14645 17.6464C9.05268 17.7402 9 17.8674 9 18C9 18.1326 9.05268 18.2598 9.14645 18.3535C9.24021 18.4473 9.36739 18.5 9.5 18.5H14.5C14.6326 18.5 14.7598 18.4473 14.8536 18.3535C14.9473 18.2598 15 18.1326 15 18C15 17.8674 14.9473 17.7402 14.8536 17.6464C14.7598 17.5527 14.6326 17.5 14.5 17.5H9.5Z" fill="#CC7108"/>
</svg>
