<svg width="24" height="24" viewBox="0 0 24 24" fill="none" xmlns="http://www.w3.org/2000/svg">
    <path d="M9.5 17.5C9.36739 17.5 9.24021 17.5527 9.14645 17.6464C9.05268 17.7402 9 17.8674 9 18C9 18.1326 9.05268 18.2598 9.14645 18.3536C9.24021 18.4473 9.36739 18.5 9.5 18.5H14.5C14.6326 18.5 14.7598 18.4473 14.8536 18.3536C14.9473 18.2598 15 18.1326 15 18C15 17.8674 14.9473 17.7402 14.8536 17.6464C14.7598 17.5527 14.6326 17.5 14.5 17.5H9.5Z" fill="black"/>
    <path d="M12 1.67139C12.8208 1.67139 13.6175 1.94883 14.2617 2.45752L20.7617 7.58936C21.1944 7.93098 21.5448 8.36573 21.7852 8.86182C22.0255 9.35789 22.1504 9.90238 22.1504 10.4536V18.4995C22.1504 19.4675 21.7654 20.3961 21.0811 21.0806C20.3965 21.7651 19.468 22.1499 18.5 22.1499H5.5C4.53196 22.1499 3.60345 21.7651 2.91895 21.0806C2.23455 20.3961 1.84961 19.4675 1.84961 18.4995V10.4536C1.84963 9.90238 1.97448 9.35789 2.21484 8.86182C2.45524 8.36573 2.80563 7.93098 3.23828 7.58936L9.73828 2.45752C10.3825 1.94883 11.1792 1.67139 12 1.67139ZM12 2.97217C11.4716 2.97217 10.9587 3.15065 10.5439 3.47803L4.04297 8.60986C3.7646 8.82987 3.5394 9.10985 3.38477 9.4292C3.23014 9.74854 3.15036 10.0988 3.15039 10.4536V18.4995C3.15039 19.1227 3.3973 19.7209 3.83789 20.1616C4.2786 20.6023 4.87674 20.8501 5.5 20.8501H18.5C19.1233 20.8501 19.7214 20.6023 20.1621 20.1616C20.6027 19.7209 20.8496 19.1227 20.8496 18.4995V10.4536C20.8495 10.0987 20.769 9.74853 20.6143 9.4292C20.4981 9.18962 20.3425 8.97221 20.1543 8.78564L19.9561 8.60986L13.4561 3.47803C13.0413 3.15065 12.5284 2.97217 12 2.97217Z" fill="black" stroke="black" stroke-width="0.3"/>
</svg>
