<svg width="24" height="24" viewBox="0 0 24 24" fill="none" xmlns="http://www.w3.org/2000/svg">
    <g clip-path="url(#clip0_2318_41924)">
        <path fill-rule="evenodd" clip-rule="evenodd" d="M11.828 20.1776V21.3736C11.828 22.3328 11.35 23.1608 10.5193 23.6404C10.1196 23.8711 9.67356 23.9998 9.21109 24C8.7482 24.0003 8.30228 23.8713 7.90234 23.6404L2.58409 20.5699C1.75333 20.0903 1.27539 19.2624 1.27539 18.3031V2.61741C1.27539 1.17408 2.44952 0 3.8928 0H15.6055C17.0489 0 18.2231 1.17398 18.2231 2.61741V5.92392C18.2231 6.39825 17.838 6.78338 17.3636 6.78338C16.8892 6.78338 16.5044 6.3983 16.5044 5.92392V2.61741C16.5044 2.1218 16.1011 1.71853 15.6055 1.71853H5.34212L10.5193 4.70808C11.3497 5.18761 11.828 6.01542 11.828 6.97434V18.4589H15.6055C16.1011 18.4589 16.5044 18.0558 16.5044 17.5602V14.6616C16.5044 14.187 16.8889 13.8022 17.3636 13.8022C17.8382 13.8022 18.2231 14.187 18.2231 14.6616V17.5602C18.2231 19.0036 17.0489 20.1776 15.6055 20.1776H11.828ZM19.7913 10.948L18.8448 11.8945C18.5092 12.2301 18.5093 12.7741 18.8448 13.1097C18.9245 13.1896 19.0193 13.2529 19.1235 13.296C19.2278 13.3392 19.3396 13.3613 19.4524 13.3612C19.5653 13.3614 19.6772 13.3393 19.7815 13.2961C19.8858 13.253 19.9806 13.1896 20.0603 13.1097L22.4734 10.6962C22.8089 10.3607 22.8089 9.81694 22.4734 9.48141L20.0603 7.06828C19.7247 6.73266 19.1806 6.7328 18.8448 7.06823C18.5094 7.40348 18.5095 7.94775 18.8448 8.28309L19.7913 9.22931H13.4509C12.9761 9.22931 12.5917 9.61406 12.5917 10.0888C12.5917 10.5636 12.9762 10.9481 13.4509 10.9481H19.7913V10.948Z" fill="#E24132"/>
    </g>
    <defs>
        <clipPath id="clip0_2318_41924">
            <rect width="24" height="24" fill="white"/>
        </clipPath>
    </defs>
</svg>
