<svg width="36" height="36" viewBox="0 0 36 36" fill="none" xmlns="http://www.w3.org/2000/svg">
    <circle cx="18" cy="18" r="18" fill="white"/>
    <path d="M25.55 12.7433C24.9388 11.9403 24.0754 11.366 23.0986 11.1128C22.1217 10.8595 21.088 10.9419 20.1637 11.3469C19.3363 11.7039 18.5984 12.3058 18 13.1047C17.4016 12.3039 16.6637 11.7019 15.8363 11.3469C14.912 10.9419 13.8783 10.8595 12.9014 11.1128C11.9246 11.366 11.0612 11.9403 10.45 12.7433C9.80547 13.5879 9.46484 14.6433 9.46484 15.7953C9.46484 17.4531 10.4535 19.2719 12.4031 21.2031C13.9918 22.7761 15.8691 24.0644 16.8465 24.6922C17.1908 24.9126 17.5911 25.0297 18 25.0297C18.4089 25.0297 18.8092 24.9126 19.1535 24.6922C20.1301 24.0644 22.0082 22.7761 23.5969 21.2031C25.5465 19.2726 26.5352 17.4531 26.5352 15.7953C26.5352 14.6433 26.1945 13.5879 25.55 12.7433Z" fill="#F9595F"/>
</svg>
