<svg width="16" height="16" viewBox="0 0 16 16" fill="none" xmlns="http://www.w3.org/2000/svg">
    <g clip-path="url(#clip0_3232_4449)">
        <path d="M1.33301 3.33333L5.99967 1.33333L9.99967 3.33333L14.2017 1.53266C14.2524 1.51092 14.3077 1.50211 14.3627 1.50702C14.4177 1.51194 14.4706 1.53043 14.5166 1.56082C14.5627 1.59122 14.6005 1.63258 14.6266 1.68119C14.6527 1.7298 14.6664 1.78414 14.6663 1.83933V12.6667L9.99967 14.6667L5.99967 12.6667L1.79767 14.4673C1.74695 14.4891 1.69162 14.4979 1.63665 14.493C1.58168 14.4881 1.52879 14.4696 1.48273 14.4392C1.43667 14.4088 1.39888 14.3674 1.37275 14.3188C1.34661 14.2702 1.33296 14.2158 1.33301 14.1607V3.33333ZM9.95634 4.80266L5.95634 2.80266L2.66634 4.21266V12.6447L6.04301 11.198L10.043 13.198L13.333 11.7867V3.35533L9.95634 4.802V4.80266Z" fill="#565656"/>
    </g>
    <defs>
        <clipPath id="clip0_3232_4449">
            <rect width="16" height="16" fill="white"/>
        </clipPath>
    </defs>
</svg>
