<svg width="24" height="24" viewBox="0 0 24 24" fill="none" xmlns="http://www.w3.org/2000/svg">
    <g clip-path="url(#clip0_3217_8621)">
        <path d="M23.8595 8.71875L22.6008 7.04053L21.9009 11.9395C21.8369 12.3883 21.6249 12.8121 21.3043 13.1327L12.6864 21.7506C11.9347 22.5023 10.9341 22.9164 9.86905 22.9164C9.55499 22.9164 9.24202 22.8796 8.93652 22.8067C9.39496 23.5234 10.1973 24 11.1095 24H21.422C22.8435 24 24.0001 22.8434 24.0001 21.4219V9.14062C24.0001 8.98851 23.9507 8.84048 23.8595 8.71875Z" fill="#CC7108"/>
        <path d="M14.5098 11.6816C14.8981 11.6816 15.2129 11.3668 15.2129 10.9785C15.2129 10.5902 14.8981 10.2754 14.5098 10.2754C14.1214 10.2754 13.8066 10.5902 13.8066 10.9785C13.8066 11.3668 14.1214 11.6816 14.5098 11.6816Z" fill="#CC7108"/>
        <path d="M6.55469 11.6816C6.94301 11.6816 7.25781 11.3668 7.25781 10.9785C7.25781 10.5902 6.94301 10.2754 6.55469 10.2754C6.16636 10.2754 5.85156 10.5902 5.85156 10.9785C5.85156 11.3668 6.16636 11.6816 6.55469 11.6816Z" fill="#CC7108"/>
        <path d="M11.692 20.7562L20.3098 12.1384C20.4174 12.0308 20.4872 11.8912 20.5087 11.7406L21.5031 4.78002C21.5186 4.67196 21.5086 4.56179 21.4741 4.45823C21.4396 4.35467 21.3814 4.26058 21.3043 4.18339L19.8127 2.69183L17.824 4.6806L18.3212 5.1778C18.5958 5.45235 18.5958 5.89757 18.3212 6.17216C18.1839 6.30946 18.0039 6.37813 17.824 6.37813C17.6441 6.37813 17.4641 6.30946 17.3269 6.17216L15.3381 4.18339C15.0635 3.90885 15.0635 3.46363 15.3381 3.18903C15.6126 2.91449 16.0579 2.91449 16.3325 3.18903L16.8297 3.68624L18.8184 1.69747L17.3268 0.20591C17.2496 0.12877 17.1555 0.070644 17.052 0.0361259C16.9484 0.00160777 16.8383 -0.0083567 16.7302 0.00701982L9.76954 1.00143C9.61893 1.02295 9.47937 1.09274 9.3718 1.20032L0.753926 9.81819C-0.251309 10.8234 -0.251309 12.459 0.753926 13.4642L8.04594 20.7562C8.54854 21.2589 9.20877 21.5101 9.86896 21.5101C10.5291 21.5101 11.1894 21.2589 11.692 20.7562ZM14.5093 8.86893C15.6725 8.86893 16.6187 9.81519 16.6187 10.9783C16.6187 12.1414 15.6725 13.0877 14.5093 13.0877C13.3462 13.0877 12.4 12.1414 12.4 10.9783C12.4 9.81519 13.3462 8.86893 14.5093 8.86893ZM6.55438 13.0877C5.39127 13.0877 4.445 12.1414 4.445 10.9783C4.445 9.81519 5.39127 8.86893 6.55438 8.86893C7.71749 8.86893 8.66375 9.81519 8.66375 10.9783C8.66375 12.1414 7.71754 13.0877 6.55438 13.0877ZM8.87469 16.6535C8.801 16.6535 8.726 16.6418 8.65227 16.6172C8.28388 16.4944 8.0848 16.0963 8.20757 15.7278L11.5221 5.78408C11.6449 5.41569 12.0431 5.21661 12.4115 5.33938C12.7799 5.46219 12.979 5.86035 12.8562 6.22879L9.54168 16.1725C9.44343 16.4671 9.16907 16.6535 8.87469 16.6535Z" fill="#CC7108"/>
        <path d="M21.3042 1.20027C21.5788 0.925723 21.5788 0.480504 21.3042 0.20591C21.0297 -0.0686367 20.5845 -0.0686367 20.3099 0.20591L18.8184 1.69747L19.8127 2.69183L21.3042 1.20027Z" fill="#CC7108"/>
    </g>
    <defs>
        <clipPath id="clip0_3217_8621">
            <rect width="24" height="24" fill="white"/>
        </clipPath>
    </defs>
</svg>
