<svg width="24" height="24" viewBox="0 0 24 24" fill="none" xmlns="http://www.w3.org/2000/svg">
    <path d="M9.54101 16.1724L12.8555 6.2287C12.9783 5.86031 12.7792 5.46211 12.4108 5.3393C12.0425 5.21653 11.6442 5.41561 11.5214 5.784L8.2069 15.7277C8.08413 16.0961 8.28321 16.4943 8.6516 16.6171C8.72534 16.6417 8.80034 16.6534 8.87402 16.6534C9.1684 16.6534 9.44276 16.4671 9.54101 16.1724ZM14.5087 13.0876C15.6718 13.0876 16.6181 12.1414 16.6181 10.9783C16.6181 9.81516 15.6718 8.86889 14.5087 8.86889C13.3456 8.86889 12.3993 9.81516 12.3993 10.9783C12.3993 12.1414 13.3456 13.0876 14.5087 13.0876ZM14.5087 10.2751C14.8964 10.2751 15.2118 10.5906 15.2118 10.9783C15.2118 11.366 14.8964 11.6814 14.5087 11.6814C14.121 11.6814 13.8056 11.366 13.8056 10.9783C13.8056 10.5906 14.121 10.2751 14.5087 10.2751ZM6.55371 8.86889C5.3906 8.86889 4.44434 9.81516 4.44434 10.9783C4.44434 12.1414 5.3906 13.0876 6.55371 13.0876C7.71682 13.0876 8.66309 12.1414 8.66309 10.9783C8.66309 9.81516 7.71687 8.86889 6.55371 8.86889ZM6.55371 11.6814C6.16601 11.6814 5.85059 11.366 5.85059 10.9783C5.85059 10.5906 6.16601 10.2751 6.55371 10.2751C6.94141 10.2751 7.25684 10.5906 7.25684 10.9783C7.25684 11.366 6.94146 11.6814 6.55371 11.6814Z" fill="black"/>
    <path d="M23.8594 8.71898L21.4075 5.44978L21.5031 4.78026C21.5186 4.6722 21.5086 4.56203 21.4741 4.45848C21.4396 4.35492 21.3814 4.26082 21.3043 4.18364L19.8127 2.69208L21.3042 1.20051C21.5788 0.925967 21.5788 0.480748 21.3042 0.206155C21.0297 -0.0683923 20.5844 -0.0683923 20.3098 0.206155L18.8183 1.69772L17.3268 0.206155C17.2496 0.129014 17.1555 0.0708881 17.0519 0.03637C16.9484 0.00185192 16.8382 -0.00811256 16.7301 0.00726396L9.76954 1.00162C9.61893 1.02315 9.47937 1.09293 9.3718 1.20051L0.753926 9.81839C-0.251309 10.8236 -0.251309 12.4592 0.753926 13.4644L8.04594 20.7565C8.19186 20.9023 8.3548 21.0301 8.53124 21.137V21.4221C8.53124 22.8437 9.68779 24.0002 11.1094 24.0002H21.4219C22.8434 24.0002 24 22.8437 24 21.4221V9.14086C24 8.98875 23.9506 8.84067 23.8594 8.71898ZM1.74829 12.4701C1.29135 12.0131 1.29135 11.2697 1.74829 10.8127L10.2004 2.36062L16.5809 1.44914L17.8239 2.69212L16.8296 3.68648L16.3324 3.18928C16.0578 2.91473 15.6126 2.91473 15.338 3.18928C15.0634 3.46383 15.0634 3.90905 15.338 4.18364L17.3268 6.1724C17.4641 6.3097 17.644 6.37837 17.8239 6.37837C18.0038 6.37837 18.1838 6.3097 18.3211 6.1724C18.5957 5.89786 18.5957 5.45264 18.3211 5.17805L17.8239 4.68084L18.8182 3.68648L20.0612 4.92947L19.1497 11.31L10.6976 19.7621C10.4763 19.9835 10.182 20.1053 9.86896 20.1053C9.55593 20.1053 9.26164 19.9834 9.0403 19.7621L1.74829 12.4701ZM22.5937 21.4221C22.5937 22.0683 22.068 22.594 21.4219 22.594H11.1094C10.4923 22.594 9.98549 22.1145 9.941 21.5086C10.577 21.491 11.2077 21.2408 11.6919 20.7565L20.3098 12.1386C20.4174 12.031 20.4872 11.8915 20.5087 11.7409L21.1262 7.41853L22.5937 9.37523V21.4221Z" fill="black"/>
</svg>
