<svg width="24" height="24" viewBox="0 0 24 24" fill="none" xmlns="http://www.w3.org/2000/svg">
    <path d="M21.5029 19.7912L20.4313 6.28608C20.3648 5.41594 19.6286 4.73461 18.7561 4.73461H16.6391V7.87134C16.6391 8.2598 16.3246 8.57423 15.9362 8.57423C15.5482 8.57423 15.2333 8.2598 15.2333 7.87134V4.73461H8.76682V7.87134C8.76682 8.2598 8.45191 8.57423 8.06393 8.57423C7.67548 8.57423 7.36104 8.2598 7.36104 7.87134V4.73461H5.24397C4.37149 4.73461 3.63532 5.41594 3.5688 6.2842L2.49668 19.7931C2.41376 20.875 2.78908 21.9518 3.52615 22.7475C4.26326 23.5431 5.30819 24 6.39297 24H17.6072C18.6919 24 19.7369 23.5431 20.474 22.7475C21.2111 21.9518 21.5864 20.875 21.5029 19.7912ZM15.1668 12.9137L11.5315 16.549C11.4663 16.6144 11.3888 16.6663 11.3034 16.7017C11.2181 16.7371 11.1267 16.7553 11.0343 16.7552C10.9419 16.7553 10.8505 16.7371 10.7652 16.7017C10.6798 16.6663 10.6023 16.6144 10.5371 16.549L8.83338 14.8453C8.55879 14.5707 8.55879 14.126 8.83338 13.8514C9.10797 13.5768 9.55315 13.5768 9.82727 13.8514L11.0343 15.058L14.1729 11.9194C14.447 11.6453 14.8922 11.6453 15.1668 11.9194C15.4413 12.194 15.4413 12.6391 15.1668 12.9137ZM12.0001 0C9.44205 0 7.36108 2.08144 7.36108 4.63945V4.73456H8.76687V4.63945C8.76687 2.85647 10.2171 1.40573 12.0001 1.40573C13.7831 1.40573 15.2334 2.85647 15.2334 4.63945V4.73456H16.6391V4.63945C16.6391 2.08144 14.5581 0 12.0001 0Z" fill="#CC7108"/>
</svg>
