<svg width="16" height="16" viewBox="0 0 16 16" fill="none" xmlns="http://www.w3.org/2000/svg">
    <path d="M12.3794 6.90231H12.0367V4.43671C12.0367 2.21111 10.226 0.400391 8.0004 0.400391C5.7748 0.400391 3.96408 2.21111 3.96408 4.43671V6.90231H3.62136C2.63416 6.90231 1.83496 7.70327 1.83496 8.68871V13.8122C1.83496 14.7994 2.63432 15.6004 3.62136 15.6004H12.3796C13.3668 15.6004 14.166 14.7994 14.166 13.8122V8.68871C14.166 7.70311 13.3666 6.90231 12.3796 6.90231H12.3794ZM8.81672 11.5545V13.0113C8.81672 13.2278 8.73072 13.4354 8.57763 13.5885C8.42454 13.7416 8.2169 13.8276 8.0004 13.8276C7.7839 13.8276 7.57627 13.7416 7.42318 13.5885C7.27009 13.4354 7.18408 13.2278 7.18408 13.0113V11.5545C6.9575 11.4158 6.77034 11.2212 6.64054 10.9895C6.51074 10.7577 6.44265 10.4964 6.4428 10.2308C6.4428 9.37175 7.14136 8.67495 8.0004 8.67495C8.85944 8.67495 9.558 9.37175 9.558 10.2308C9.55815 10.4964 9.49007 10.7577 9.36026 10.9895C9.23046 11.2212 9.0433 11.4158 8.81672 11.5545ZM10.2494 6.90231H5.75144V4.43671C5.75144 3.19655 6.76024 2.18775 8.0004 2.18775C9.24056 2.18775 10.2494 3.19655 10.2494 4.43671V6.90231Z" fill="#CC7108"/>
</svg>
