<svg width="16" height="16" viewBox="0 0 16 16" fill="none" xmlns="http://www.w3.org/2000/svg">
    <path d="M7 10.755V9.5H4.5C4.36739 9.5 4.24021 9.44732 4.14645 9.35355C4.05268 9.25979 4 9.13261 4 9C4 8.86739 4.05268 8.74021 4.14645 8.64645C4.24021 8.55268 4.36739 8.5 4.5 8.5H7.09C7.16466 8.2903 7.28505 8.09985 7.44245 7.94245C7.59985 7.78505 7.7903 7.66466 8 7.59L10.75 6.59C11.0811 6.46964 11.4439 6.46964 11.775 6.59L12.515 6.86V2.5C12.515 2.10218 12.357 1.72064 12.0757 1.43934C11.7944 1.15804 11.4128 1 11.015 1H3C2.60218 1 2.22064 1.15804 1.93934 1.43934C1.65804 1.72064 1.5 2.10218 1.5 2.5V13.5C1.5 13.8978 1.65804 14.2794 1.93934 14.5607C2.22064 14.842 2.60218 15 3 15H9.06C8.41914 14.4932 7.90102 13.8482 7.54432 13.1132C7.18762 12.3781 7.00155 11.572 7 10.755ZM4.5 3.5H9.5C9.63261 3.5 9.75979 3.55268 9.85355 3.64645C9.94732 3.74021 10 3.86739 10 4C10 4.13261 9.94732 4.25979 9.85355 4.35355C9.75979 4.44732 9.63261 4.5 9.5 4.5H4.5C4.36739 4.5 4.24021 4.44732 4.14645 4.35355C4.05268 4.25979 4 4.13261 4 4C4 3.86739 4.05268 3.74021 4.14645 3.64645C4.24021 3.55268 4.36739 3.5 4.5 3.5ZM4.5 6H9.5C9.63261 6 9.75979 6.05268 9.85355 6.14645C9.94732 6.24021 10 6.36739 10 6.5C10 6.63261 9.94732 6.75979 9.85355 6.85355C9.75979 6.94732 9.63261 7 9.5 7H4.5C4.36739 7 4.24021 6.94732 4.14645 6.85355C4.05268 6.75979 4 6.63261 4 6.5C4 6.36739 4.05268 6.24021 4.14645 6.14645C4.24021 6.05268 4.36739 6 4.5 6ZM6 12.5H4.5C4.36739 12.5 4.24021 12.4473 4.14645 12.3536C4.05268 12.2598 4 12.1326 4 12C4 11.8674 4.05268 11.7402 4.14645 11.6464C4.24021 11.5527 4.36739 11.5 4.5 11.5H6C6.13261 11.5 6.25979 11.5527 6.35355 11.6464C6.44732 11.7402 6.5 11.8674 6.5 12C6.5 12.1326 6.44732 12.2598 6.35355 12.3536C6.25979 12.4473 6.13261 12.5 6 12.5ZM14.17 8.53L11.42 7.53C11.3101 7.49028 11.1899 7.49028 11.08 7.53L8.33 8.53C8.23336 8.56494 8.14984 8.6288 8.09079 8.7129C8.03175 8.79699 8.00004 8.89724 8 9V10.755C8.00227 11.6614 8.28248 12.5452 8.80284 13.2873C9.3232 14.0294 10.0587 14.594 10.91 14.905C11.018 14.9486 11.1335 14.9707 11.25 14.97C11.366 14.9699 11.481 14.9496 11.59 14.91C12.4413 14.5975 13.1766 14.0318 13.6968 13.289C14.217 12.5462 14.4973 11.6619 14.5 10.755V9C14.5 8.89724 14.4683 8.79699 14.4092 8.7129C14.3502 8.6288 14.2666 8.56494 14.17 8.53ZM12.855 10.855L11.355 12.355C11.3085 12.4019 11.2532 12.4391 11.1923 12.4644C11.1314 12.4898 11.066 12.5029 11 12.5029C10.934 12.5029 10.8686 12.4898 10.8077 12.4644C10.7468 12.4391 10.6915 12.4019 10.645 12.355L9.645 11.355C9.55085 11.2608 9.49795 11.1332 9.49795 11C9.49795 10.8668 9.55085 10.7392 9.645 10.645C9.73915 10.5508 9.86685 10.498 10 10.498C10.1332 10.498 10.2608 10.5508 10.355 10.645L11 11.295L12.145 10.145C12.2392 10.0508 12.3668 9.99795 12.5 9.99795C12.6332 9.99795 12.7608 10.0508 12.855 10.145C12.9492 10.2392 13.002 10.3668 13.002 10.5C13.002 10.6332 12.9492 10.7608 12.855 10.855Z" fill="#CC7108"/>
</svg>
