<svg width="42" height="42" viewBox="0 0 42 42" fill="none" xmlns="http://www.w3.org/2000/svg">
    <ellipse opacity="0.1" cx="21.0007" cy="21.5834" rx="18.6667" ry="18.6667" fill="#CC7108"/>
    <ellipse cx="20.9993" cy="35.875" rx="16.3333" ry="0.875" fill="#703E04"/>
    <ellipse cx="4.16007" cy="15.2427" rx="1.82609" ry="1.82609" fill="#CC7108"/>
    <circle cx="36.3696" cy="21.7862" r="1.36957" fill="#0E260E"/>
    <path d="M30.765 21.2485C31.1745 21.2485 31.5 20.9266 31.5 20.5216V19.5558C31.5 15.2981 30.1875 14 25.8825 14H16.1175C11.8125 14 10.5 15.2981 10.5 19.5558V20.0439C10.5 20.4489 10.8255 20.7708 11.235 20.7708C12.18 20.7708 12.9465 21.5289 12.9465 22.4635C12.9465 23.3981 12.18 24.1458 11.235 24.1458C10.8255 24.1458 10.5 24.4678 10.5 24.8728V25.3609C10.5 29.6186 11.8125 30.9167 16.1175 30.9167H25.8825C30.1875 30.9167 31.5 29.6186 31.5 25.3609C31.5 24.9559 31.1745 24.6339 30.765 24.6339C29.82 24.6339 29.0535 23.8758 29.0535 22.9412C29.0535 22.0066 29.82 21.2485 30.765 21.2485ZM17.85 19.2131C18.4275 19.2131 18.9 19.6804 18.9 20.2516C18.9 20.8227 18.438 21.2901 17.85 21.2901C17.2725 21.2901 16.8 20.8227 16.8 20.2516C16.8 19.6804 17.262 19.2131 17.85 19.2131ZM24.15 26.4824C23.562 26.4824 23.0895 26.0151 23.0895 25.4439C23.0895 24.8728 23.562 24.4055 24.1395 24.4055C24.717 24.4055 25.1895 24.8728 25.1895 25.4439C25.1895 26.0151 24.738 26.4824 24.15 26.4824ZM25.095 19.8362L18.0285 26.8251C17.871 26.9809 17.6715 27.0536 17.472 27.0536C17.2725 27.0536 17.073 26.9809 16.9155 26.8251C16.611 26.5239 16.611 26.0255 16.9155 25.7243L23.982 18.7354C24.2865 18.4343 24.7905 18.4343 25.095 18.7354C25.3995 19.0366 25.3995 19.535 25.095 19.8362Z" fill="#CC7108"/>
    <mask id="mask0_3263_7493" style="mask-type:alpha" maskUnits="userSpaceOnUse" x="10" y="14" width="22" height="17">
        <path d="M30.765 21.2485C31.1745 21.2485 31.5 20.9266 31.5 20.5216V19.5558C31.5 15.2981 30.1875 14 25.8825 14H16.1175C11.8125 14 10.5 15.2981 10.5 19.5558V20.0439C10.5 20.4489 10.8255 20.7708 11.235 20.7708C12.18 20.7708 12.9465 21.5289 12.9465 22.4635C12.9465 23.3981 12.18 24.1458 11.235 24.1458C10.8255 24.1458 10.5 24.4678 10.5 24.8728V25.3609C10.5 29.6186 11.8125 30.9167 16.1175 30.9167H25.8825C30.1875 30.9167 31.5 29.6186 31.5 25.3609C31.5 24.9559 31.1745 24.6339 30.765 24.6339C29.82 24.6339 29.0535 23.8758 29.0535 22.9412C29.0535 22.0066 29.82 21.2485 30.765 21.2485ZM17.85 19.2131C18.4275 19.2131 18.9 19.6804 18.9 20.2516C18.9 20.8227 18.438 21.2901 17.85 21.2901C17.2725 21.2901 16.8 20.8227 16.8 20.2516C16.8 19.6804 17.262 19.2131 17.85 19.2131ZM24.15 26.4824C23.562 26.4824 23.0895 26.0151 23.0895 25.4439C23.0895 24.8728 23.562 24.4055 24.1395 24.4055C24.717 24.4055 25.1895 24.8728 25.1895 25.4439C25.1895 26.0151 24.738 26.4824 24.15 26.4824ZM25.095 19.8362L18.0285 26.8251C17.871 26.9809 17.6715 27.0536 17.472 27.0536C17.2725 27.0536 17.073 26.9809 16.9155 26.8251C16.611 26.5239 16.611 26.0255 16.9155 25.7243L23.982 18.7354C24.2865 18.4343 24.7905 18.4343 25.095 18.7354C25.3995 19.0366 25.3995 19.535 25.095 19.8362Z" fill="#F55349"/>
    </mask>
    <g mask="url(#mask0_3263_7493)">
        <path d="M18.958 15.1667C13.9997 15.1667 15.458 12.5417 16.6246 11.6667C17.7913 10.7917 22.1663 9.62501 25.3747 10.2083C30.7367 11.1833 33.2497 13.125 33.2497 16.625C33.2497 20.125 31.7913 22.4583 30.333 22.4583C29.0286 22.4583 29.7497 20.4167 29.1664 18.0833C28.583 15.75 26.5485 15.1667 18.958 15.1667Z" fill="#D68D39"/>
        <path d="M27.1247 30.0417C29.2247 29.3417 29.5553 25.6667 29.458 23.9167C29.458 23.9167 30.9163 23.625 31.7914 24.2083C32.6664 24.7917 32.958 26.5417 32.3747 28.5833C31.7914 30.625 30.333 31.5 28.583 31.7917C26.8331 32.0833 20.708 31.2083 20.708 31.2083C21.9719 31.1111 25.0247 30.7417 27.1247 30.0417Z" fill="#D68D39"/>
        <path d="M22.4581 23.9167C25.9219 20.6693 25.3747 18.6667 24.4997 19.25C23.0414 20.6111 19.7164 23.7417 18.0831 25.375C16.0414 27.4167 17.7914 28.2917 22.4581 23.9167Z" fill="#D68D39"/>
    </g>
</svg>
