<svg width="16" height="16" viewBox="0 0 16 16" fill="none" xmlns="http://www.w3.org/2000/svg">
    <path d="M11.2153 9.3249L8.54029 11.9999C8.39654 12.1437 8.29966 12.3374 8.27466 12.5405L8.05904 14.1655C8.04029 14.3155 8.05591 14.4624 8.10591 14.603H1.48091C0.634037 14.603 0.0309122 13.778 0.290287 12.9718L1.31841 9.75928C1.64966 8.72803 2.77779 8.19365 3.78404 8.58428C4.45279 8.84365 5.31216 9.04678 6.36529 9.04678C7.41841 9.04678 8.27779 8.84365 8.94654 8.58428C9.80279 8.2499 10.7465 8.58428 11.2153 9.3249ZM6.36841 1.3999C4.59029 1.3999 3.14654 2.84365 3.14654 4.62178C3.14654 6.3999 4.59029 7.84365 6.36841 7.84365C8.14654 7.84365 9.59029 6.3999 9.59029 4.62178C9.59029 2.84365 8.14654 1.3999 6.36841 1.3999ZM12.5872 8.8374L8.98091 12.4405C8.93091 12.4874 8.90279 12.553 8.89341 12.6218L8.67779 14.2468C8.64966 14.4499 8.82466 14.6249 9.02779 14.5968L10.6528 14.3812C10.7215 14.3718 10.784 14.3405 10.834 14.2937L14.4372 10.6874L12.5872 8.8374ZM15.5403 8.47803L14.7934 7.73115C14.4872 7.4249 13.9934 7.4249 13.6903 7.73115L13.2309 8.19053L15.0809 10.0405L15.5403 9.58115C15.8434 9.27803 15.8434 8.78428 15.5403 8.47803Z" fill="#CC7108"/>
</svg>
