<svg width="24" height="24" viewBox="0 0 24 24" fill="none" xmlns="http://www.w3.org/2000/svg">
    <path d="M11.7352 11.5609C13.3234 11.5609 14.6986 10.9912 15.8225 9.86731C16.946 8.74362 17.5158 7.36869 17.5158 5.78029C17.5158 4.19235 16.9462 2.81728 15.8223 1.69317C14.6984 0.569624 13.3233 0 11.7352 0C10.1468 0 8.7718 0.569624 7.64811 1.69336C6.52443 2.81709 5.95457 4.19221 5.95457 5.78029C5.95457 7.36869 6.52438 8.74381 7.64816 9.86754C8.77222 10.9911 10.1473 11.5609 11.7352 11.5609H11.7352ZM8.64275 2.68781C9.50497 1.82554 10.5165 1.40643 11.7352 1.40643C12.9538 1.40643 13.9654 1.82554 14.8278 2.68781C15.6901 3.55021 16.1094 4.56187 16.1094 5.78024C16.1094 6.99899 15.6901 8.0105 14.8278 8.8729C13.9654 9.73536 12.9538 10.1545 11.7352 10.1545C10.5168 10.1545 9.50539 9.73517 8.64275 8.8729C7.7803 8.01069 7.361 6.99903 7.361 5.78029C7.361 4.56187 7.7803 3.55021 8.64275 2.68781ZM21.8498 18.4548C21.8173 17.9872 21.7518 17.477 21.6553 16.9383C21.5579 16.3956 21.4325 15.8825 21.2823 15.4136C21.127 14.9289 20.9163 14.4503 20.6553 13.9916C20.3849 13.5155 20.0671 13.101 19.7103 12.7599C19.3374 12.403 18.8807 12.1161 18.3526 11.9067C17.8264 11.6986 17.2432 11.5931 16.6194 11.5931C16.3743 11.5931 16.1374 11.6936 15.6798 11.9916C15.3546 12.2034 15.0283 12.4137 14.7011 12.6225C14.3868 12.8229 13.9609 13.0106 13.4348 13.1805C12.9215 13.3466 12.4004 13.4308 11.8859 13.4308C11.3718 13.4308 10.8506 13.3466 10.337 13.1805C9.81153 13.0107 9.38544 12.8231 9.07156 12.6227C8.70735 12.39 8.37782 12.1776 8.09197 11.9914C7.63475 11.6935 7.3978 11.5929 7.15283 11.5929C6.52879 11.5929 5.9458 11.6986 5.41973 11.907C4.89201 12.1159 4.43517 12.4028 4.06181 12.7601C3.70514 13.1013 3.38728 13.5157 3.117 13.9916C2.85647 14.4503 2.64553 14.9287 2.49023 15.4138C2.34023 15.8827 2.21484 16.3956 2.11744 16.9383C2.02073 17.4763 1.95539 17.9866 1.92295 18.4554C1.89108 18.9137 1.875 19.3906 1.875 19.8726C1.875 21.1254 2.27325 22.1396 3.05859 22.8876C3.83423 23.6257 4.86037 24 6.10855 24H17.6647C18.9125 24 19.9387 23.6257 20.7145 22.8876C21.5 22.1401 21.8983 21.1256 21.8983 19.8724C21.8981 19.3888 21.8818 18.9118 21.8498 18.4548ZM19.7448 21.8686C19.2323 22.3564 18.5518 22.5935 17.6645 22.5935H6.1086C5.22112 22.5935 4.54068 22.3564 4.02834 21.8688C3.52575 21.3903 3.28148 20.7372 3.28148 19.8726C3.28148 19.4229 3.29629 18.9789 3.32601 18.5526C3.35489 18.1344 3.41404 17.6749 3.50179 17.1868C3.58837 16.7047 3.69857 16.2522 3.82968 15.8426C3.9555 15.4498 4.12706 15.061 4.33982 14.6863C4.54289 14.3292 4.77651 14.0229 5.03432 13.7761C5.27549 13.5452 5.57948 13.3563 5.9376 13.2146C6.26882 13.0834 6.6411 13.0116 7.04521 13.0008C7.09443 13.0271 7.18218 13.077 7.32425 13.1696C7.61338 13.3581 7.94661 13.5731 8.31505 13.8083C8.73036 14.0731 9.26535 14.3122 9.90458 14.5186C10.5581 14.7299 11.2246 14.8372 11.8861 14.8372C12.5477 14.8372 13.2144 14.7299 13.8675 14.5188C14.5073 14.312 15.0421 14.0731 15.458 13.8079C15.835 13.567 16.1589 13.3583 16.448 13.1696C16.5901 13.0772 16.6778 13.027 16.7271 13.0008C17.1314 13.0116 17.5036 13.0834 17.835 13.2145C18.193 13.3563 18.497 13.5454 18.7381 13.7761C18.9959 14.0227 19.2295 14.3291 19.4326 14.6865C19.6456 15.061 19.8174 15.4501 19.9429 15.8425C20.0742 16.2526 20.1846 16.7049 20.2711 17.1866C20.3586 17.6757 20.4179 18.1353 20.4468 18.5528V18.5531C20.4767 18.9777 20.4917 19.4216 20.4919 19.8726C20.4917 20.7374 20.2474 21.3904 19.7448 21.8686H19.7448Z" fill="black"/>
</svg>
