<svg width="24" height="24" viewBox="0 0 24 24" fill="none" xmlns="http://www.w3.org/2000/svg">
    <g clip-path="url(#clip0_3217_1447)">
        <path d="M11.9696 11.5609C13.5578 11.5609 14.9331 10.9912 16.0568 9.86729C17.1806 8.74361 17.7502 7.36867 17.7502 5.78027C17.7502 4.19234 17.1806 2.81727 16.0567 1.69317C14.9327 0.569623 13.5576 0 11.9696 0C10.3811 0 9.00617 0.569623 7.88248 1.69335C6.7588 2.81708 6.18894 4.1922 6.18894 5.78027C6.18894 7.36867 6.75875 8.74379 7.88267 9.86752C9.00659 10.9911 10.3817 11.5609 11.9696 11.5609ZM22.0841 18.4548C22.0517 17.9871 21.9861 17.4769 21.8896 16.9383C21.7922 16.3955 21.6668 15.8825 21.5166 15.4136C21.3616 14.9289 21.1506 14.4503 20.8899 13.9916C20.6193 13.5155 20.3014 13.1009 19.9447 12.7598C19.5717 12.403 19.115 12.1161 18.587 11.9067C18.0607 11.6986 17.4775 11.5931 16.8537 11.5931C16.6087 11.5931 16.3718 11.6936 15.9142 11.9916C15.5889 12.2034 15.2627 12.4137 14.9355 12.6225C14.6211 12.8228 14.1952 13.0105 13.6691 13.1804C13.1559 13.3465 12.6348 13.4308 12.1204 13.4308C11.6061 13.4308 11.0852 13.3465 10.5714 13.1804C10.0459 13.0107 9.61999 12.823 9.30593 12.6227C8.94171 12.39 8.61218 12.1776 8.32634 11.9913C7.86931 11.6934 7.63217 11.5929 7.3872 11.5929C6.76316 11.5929 6.18018 11.6985 5.6541 11.907C5.12638 12.1159 4.66954 12.4028 4.29618 12.76C3.9397 13.1013 3.62165 13.5157 3.35137 13.9916C3.09084 14.4502 2.87991 14.9287 2.72461 15.4138C2.57461 15.8827 2.44922 16.3955 2.35182 16.9383C2.2553 17.4762 2.18977 17.9866 2.15733 18.4553C2.12506 18.927 2.10907 19.3997 2.10938 19.8725C2.10938 21.1254 2.50763 22.1395 3.29297 22.8875C4.06861 23.6257 5.09488 24.0001 6.34293 24.0001H17.8991C19.1471 24.0001 20.173 23.6258 20.9488 22.8876C21.7344 22.1401 22.1326 21.1257 22.1326 19.8723C22.1324 19.3888 22.1162 18.9118 22.0841 18.4548Z" fill="#CC7108"/>
    </g>
    <defs>
        <clipPath id="clip0_3217_1447">
            <rect width="24" height="24" fill="white"/>
        </clipPath>
    </defs>
</svg>
