<svg width="16" height="16" viewBox="0 0 16 16" fill="none" xmlns="http://www.w3.org/2000/svg">
    <g clip-path="url(#clip0_2318_41944)">
        <path d="M15.122 6.26267L13.8687 6.10333C13.7665 5.78851 13.6396 5.48223 13.4893 5.18733L14.2633 4.19067C14.4146 3.99931 14.4899 3.75889 14.4749 3.51545C14.4599 3.27201 14.3556 3.04267 14.182 2.87133L13.132 1.82133C12.9606 1.6467 12.7307 1.54148 12.4865 1.52586C12.2423 1.51023 12.0009 1.5853 11.8087 1.73667L10.8133 2.51067C10.5183 2.36024 10.2118 2.2334 9.89667 2.13133L9.73733 0.88C9.70832 0.637576 9.59151 0.414178 9.40897 0.252032C9.22643 0.0898857 8.99082 0.00022607 8.74667 0L7.25333 0C6.74867 0 6.32267 0.378 6.26267 0.878L6.10333 2.13133C5.78814 2.23311 5.48161 2.35996 5.18667 2.51067L4.19067 1.73667C3.99919 1.58572 3.75884 1.51057 3.51548 1.52557C3.27212 1.54058 3.04282 1.64468 2.87133 1.818L1.82133 2.86733C1.64652 3.03879 1.54119 3.26876 1.52556 3.51313C1.50993 3.75749 1.58511 3.99901 1.73667 4.19133L2.51067 5.18733C2.36008 5.4821 2.23323 5.7884 2.13133 6.10333L0.88 6.26267C0.378 6.32267 0 6.74867 0 7.25333V8.74667C0 9.25133 0.378 9.67733 0.878 9.73733L2.13133 9.89667C2.23467 10.2147 2.362 10.5213 2.51067 10.8127L1.73667 11.8093C1.58544 12.0007 1.51011 12.2411 1.52512 12.4845C1.54013 12.728 1.64441 12.9573 1.818 13.1287L2.868 14.1787C3.03965 14.3529 3.26951 14.4578 3.51363 14.4733C3.75775 14.4888 3.99902 14.4138 4.19133 14.2627L5.18733 13.4887C5.47867 13.638 5.78533 13.7653 6.10333 13.868L6.26267 15.1187C6.32267 15.622 6.74867 16 7.25333 16H8.74667C9.25133 16 9.67733 15.622 9.73733 15.122L9.89667 13.8687C10.2115 13.7665 10.5178 13.6396 10.8127 13.4893L11.8093 14.2633C12.2127 14.5767 12.782 14.54 13.1287 14.182L14.1787 13.132C14.3533 12.9606 14.4585 12.7307 14.4741 12.4865C14.4898 12.2423 14.4147 12.0009 14.2633 11.8087L13.4893 10.8127C13.6387 10.5213 13.766 10.2147 13.8687 9.89667L15.1193 9.73733C15.3618 9.70832 15.5852 9.59151 15.7473 9.40897C15.9094 9.22643 15.9991 8.99082 15.9993 8.74667V7.25333C15.9995 7.00951 15.9103 6.77407 15.7486 6.59154C15.587 6.409 15.3641 6.292 15.122 6.26267ZM8 11.3333C6.162 11.3333 4.66667 9.838 4.66667 8C4.66667 6.162 6.162 4.66667 8 4.66667C9.838 4.66667 11.3333 6.162 11.3333 8C11.3333 9.838 9.838 11.3333 8 11.3333Z" fill="#CC7108"/>
    </g>
    <defs>
        <clipPath id="clip0_2318_41944">
            <rect width="16" height="16" fill="white"/>
        </clipPath>
    </defs>
</svg>
