<svg width="14" height="15" viewBox="0 0 14 15" fill="none" xmlns="http://www.w3.org/2000/svg">
    <path d="M3.34878 9.83332C3.41295 9.54749 3.29628 9.13916 3.09211 8.93499L1.67461 7.51749C1.23128 7.07416 1.05628 6.60166 1.18461 6.19332C1.31878 5.78499 1.73295 5.50499 2.35128 5.39999L4.17128 5.09666C4.43378 5.04999 4.75461 4.81666 4.87711 4.57749L5.88045 2.56499C6.17211 1.98749 6.56878 1.66666 7.00045 1.66666C7.43211 1.66666 7.82878 1.98749 8.12045 2.56499L9.12378 4.57749C9.19961 4.72916 9.35711 4.87499 9.52628 4.97416L3.24378 11.2567C3.16211 11.3383 3.02211 11.2625 3.04545 11.1458L3.34878 9.83332Z" fill="#FFCC00"/>
    <path d="M10.9088 8.93501C10.6988 9.14501 10.5821 9.54751 10.6521 9.83334L11.0546 11.5892C11.2238 12.3183 11.1188 12.8667 10.7571 13.1292C10.6113 13.2342 10.4363 13.2867 10.2321 13.2867C9.93462 13.2867 9.58462 13.1758 9.19962 12.9483L7.49046 11.9333C7.22212 11.7758 6.77879 11.7758 6.51046 11.9333L4.80129 12.9483C4.15379 13.3275 3.59962 13.3917 3.24379 13.1292C3.10962 13.03 3.01046 12.8958 2.94629 12.7208L10.0396 5.62751C10.308 5.35918 10.6871 5.23668 11.0546 5.30084L11.6438 5.40001C12.2621 5.50501 12.6763 5.78501 12.8105 6.19334C12.9388 6.60168 12.7638 7.07418 12.3205 7.51751L10.9088 8.93501Z" fill="#FFCC00"/>
</svg>
