<svg width="16" height="16" viewBox="0 0 16 16" fill="none" xmlns="http://www.w3.org/2000/svg">
    <path fill-rule="evenodd" clip-rule="evenodd" d="M8.18158 2.15645C7.01818 2.11741 5.87182 2.44421 4.90389 3.09085C3.81558 3.81845 3.01855 4.90636 2.65287 6.16338C2.55385 6.1513 2.43527 6.15663 2.29447 6.19645C1.76878 6.34579 1.37358 6.77636 1.1958 7.15574C0.965047 7.65014 0.867803 8.30419 0.970381 8.97903C1.07225 9.65192 1.35651 10.2066 1.71207 10.5509C2.06869 10.8955 2.47136 11.0075 2.87136 10.9234C3.46691 10.7963 3.7622 10.7012 3.67882 10.1465L3.27527 7.45672C3.31625 6.72465 3.52688 6.01214 3.89052 5.37545C4.25415 4.73876 4.76084 4.19534 5.37056 3.7881C6.19226 3.23838 7.16565 2.96015 8.15374 2.99255C9.14184 3.02495 10.0949 3.36635 10.8788 3.96872C11.4201 4.38369 11.8651 4.91082 12.1835 5.51395C12.5019 6.11709 12.686 6.78196 12.7233 7.46294L12.441 9.34436C12.1346 10.184 11.5966 10.9197 10.8891 11.4659C10.1817 12.0122 9.33383 12.3467 8.44398 12.4306H7.24114C7.16753 12.4304 7.09462 12.4448 7.02659 12.4729C6.95855 12.501 6.89673 12.5422 6.84467 12.5942C6.7926 12.6462 6.75133 12.708 6.7232 12.7761C6.69508 12.8441 6.68066 12.917 6.68078 12.9906V13.2861C6.68064 13.3597 6.69504 13.4326 6.72315 13.5006C6.75127 13.5687 6.79254 13.6305 6.8446 13.6825C6.89667 13.7346 6.9585 13.7758 7.02655 13.8039C7.09459 13.832 7.16752 13.8464 7.24114 13.8462H8.75776C8.83129 13.8463 8.90412 13.8319 8.97207 13.8038C9.04001 13.7757 9.10173 13.7345 9.15369 13.6824C9.20564 13.6304 9.2468 13.5686 9.2748 13.5006C9.30281 13.4326 9.3171 13.3598 9.31687 13.2862V13.1316C10.6795 12.7979 11.8666 11.9636 12.642 10.7945L13.1279 10.9234C13.5233 11.026 13.9307 10.8953 14.2872 10.5509C14.6427 10.2064 14.9268 9.65192 15.0289 8.97903C15.132 8.30401 15.0317 7.65121 14.8038 7.15574C14.575 6.66027 14.2342 6.34561 13.8408 6.23272C13.676 6.18525 13.4971 6.16783 13.3437 6.16338C13.0135 5.02651 12.329 4.02471 11.3899 3.30383C10.4668 2.59518 9.34472 2.19389 8.18158 2.15645Z" fill="#CC7108"/>
    <path fill-rule="evenodd" clip-rule="evenodd" d="M9.95697 6.99554C10.1496 6.99577 10.3343 7.07242 10.4705 7.20867C10.6068 7.34492 10.6834 7.52963 10.6835 7.72229C10.6832 7.91494 10.6065 8.0996 10.4703 8.23582C10.3341 8.37204 10.1494 8.44872 9.95679 8.44905C9.76393 8.44909 9.57894 8.37258 9.44247 8.2363C9.30599 8.10003 9.2292 7.91515 9.22897 7.72229C9.22902 7.62677 9.24788 7.53219 9.28448 7.44396C9.32109 7.35572 9.37471 7.27557 9.4423 7.20806C9.50989 7.14056 9.59011 7.08703 9.67839 7.05053C9.76666 7.01404 9.86127 6.99529 9.95679 6.99536L9.95697 6.99554ZM7.99964 6.99554C8.14335 6.99561 8.28382 7.03829 8.40328 7.11818C8.52275 7.19807 8.61584 7.31159 8.6708 7.44438C8.72576 7.57717 8.74011 7.72328 8.71204 7.86423C8.68397 8.00518 8.61475 8.13464 8.51311 8.23625C8.41148 8.33786 8.282 8.40705 8.14104 8.43509C8.00009 8.46312 7.85398 8.44873 7.7212 8.39374C7.58842 8.33875 7.47493 8.24563 7.39507 8.12615C7.3152 8.00666 7.27256 7.86619 7.27252 7.72247C7.27243 7.62696 7.29117 7.53236 7.32768 7.44411C7.36419 7.35585 7.41774 7.27565 7.48528 7.20812C7.55282 7.14058 7.63301 7.08702 7.72127 7.05052C7.80953 7.01401 7.90412 6.99544 7.99964 6.99554ZM6.04284 6.99554C6.13963 6.99339 6.23587 7.01061 6.32592 7.04617C6.41597 7.08173 6.498 7.13492 6.56722 7.20262C6.63643 7.27032 6.69142 7.35116 6.72896 7.4404C6.7665 7.52964 6.78584 7.62548 6.78584 7.72229C6.78584 7.81911 6.7665 7.91495 6.72896 8.00419C6.69142 8.09343 6.63643 8.17427 6.56722 8.24196C6.498 8.30966 6.41597 8.36285 6.32592 8.39841C6.23587 8.43397 6.13963 8.45119 6.04284 8.44905C5.85203 8.44606 5.67006 8.36817 5.53618 8.23219C5.40231 8.0962 5.32727 7.91303 5.32727 7.7222C5.32727 7.53138 5.40231 7.3482 5.53618 7.21222C5.67006 7.07623 5.85203 6.99852 6.04284 6.99554ZM7.99964 3.87305C5.86808 3.87305 4.15039 5.5342 4.15039 7.72211C4.15039 8.77296 4.54772 9.70167 5.19501 10.3831L4.96532 11.4128C4.88959 11.7516 5.12461 11.9795 5.42932 11.8099L6.43466 11.249C6.92862 11.4629 7.46136 11.5727 7.99964 11.5715C10.1319 11.5715 11.8485 9.91145 11.8485 7.72265C11.8485 5.53456 10.1319 3.8734 7.99964 3.8734V3.87305Z" fill="#CC7108"/>
</svg>
