<svg width="16" height="16" viewBox="0 0 16 16" fill="none" xmlns="http://www.w3.org/2000/svg">
    <g clip-path="url(#clip0_2318_41789)">
        <path fill-rule="evenodd" clip-rule="evenodd" d="M0.809969 15.409H10.5074C10.6785 15.409 10.831 15.327 10.9278 15.2003H10.6883C10.3324 15.2003 10.0433 14.9111 10.0433 14.5553V14.3471C9.77705 14.2662 9.5194 14.1594 9.27406 14.0282L9.12663 14.1756C8.875 14.4273 8.46603 14.4273 8.21444 14.1756L7.37281 13.334C7.12122 13.0824 7.12122 12.6735 7.37281 12.4218L7.52022 12.2744C7.45608 12.1545 7.39772 12.0315 7.34534 11.906H2.42622C2.35991 11.906 2.29633 11.8796 2.24944 11.8328C2.20256 11.7859 2.17622 11.7223 2.17622 11.656C2.17622 11.5897 2.20256 11.5261 2.24944 11.4792C2.29633 11.4323 2.35991 11.406 2.42622 11.406H6.64972C6.46863 11.2917 6.34816 11.0898 6.34816 10.8602V10.393H2.42622C2.35991 10.393 2.29633 10.3666 2.24944 10.3197C2.20256 10.2728 2.17622 10.2093 2.17622 10.143C2.17622 10.0766 2.20256 10.0131 2.24944 9.96618C2.29633 9.91929 2.35991 9.89295 2.42622 9.89295H6.34816V9.66992C6.34816 9.31408 6.63734 9.02492 6.99316 9.02492H7.20138C7.21613 8.9763 7.23178 8.92795 7.24825 8.87992H2.42622C2.35991 8.87992 2.29633 8.85358 2.24944 8.8067C2.20256 8.75981 2.17622 8.69623 2.17622 8.62992C2.17622 8.56362 2.20256 8.50003 2.24944 8.45315C2.29633 8.40626 2.35991 8.37992 2.42622 8.37992H7.45644C7.47703 8.33817 7.49831 8.29677 7.52028 8.2557L7.37281 8.10823C7.1725 7.90792 7.13169 7.60786 7.25034 7.36686H2.42622C2.35991 7.36686 2.29633 7.34052 2.24944 7.29364C2.20256 7.24675 2.17622 7.18316 2.17622 7.11686C2.17622 7.05055 2.20256 6.98697 2.24944 6.94008C2.29633 6.8932 2.35991 6.86686 2.42622 6.86686H7.702L8.21447 6.35442C8.46609 6.1028 8.87506 6.10283 9.12666 6.35442L9.27409 6.50186C9.51943 6.37063 9.77708 6.26383 10.0433 6.18302V5.97473C10.0433 5.61889 10.3325 5.3297 10.6883 5.3297H11.0362V3.83314H8.77222C8.23334 3.83314 7.79484 3.39464 7.79484 2.85577V0.591797H0.809969C0.51875 0.591797 0.28125 0.829391 0.28125 1.12052V14.8803C0.28125 15.1715 0.518938 15.409 0.809969 15.409ZM10.6883 5.82973H11.8786C11.917 5.82981 11.9539 5.84511 11.981 5.87229C12.0082 5.89948 12.0235 5.93632 12.0236 5.97477V6.57248C12.5049 6.66853 12.9627 6.85826 13.3709 7.13089L13.7938 6.70798C13.821 6.68086 13.8579 6.66563 13.8964 6.66563C13.9348 6.66563 13.9717 6.68086 13.9989 6.70798L14.8405 7.54961C14.8677 7.57684 14.8829 7.61372 14.8829 7.65216C14.8829 7.6906 14.8677 7.72747 14.8405 7.7547L14.4176 8.17761C14.6903 8.58577 14.88 9.04354 14.976 9.52489H15.5738C15.6122 9.52496 15.6491 9.54027 15.6763 9.56745C15.7034 9.59463 15.7187 9.63148 15.7188 9.66992V10.8602C15.7187 10.8986 15.7034 10.9355 15.6763 10.9626C15.6491 10.9898 15.6122 11.0051 15.5738 11.0052H14.9761C14.88 11.4866 14.6903 11.9444 14.4177 12.3525L14.8405 12.7754C14.8677 12.8026 14.8829 12.8395 14.8829 12.8779C14.8829 12.9164 14.8677 12.9532 14.8405 12.9805L13.9989 13.8221C13.9716 13.8492 13.9348 13.8644 13.8963 13.8644C13.8579 13.8644 13.821 13.8492 13.7938 13.8221L13.3709 13.3992C12.9628 13.6719 12.505 13.8616 12.0236 13.9576V14.5553C12.0236 14.5937 12.0082 14.6306 11.9811 14.6578C11.9539 14.6849 11.917 14.7003 11.8786 14.7003H10.6883C10.6499 14.7003 10.6131 14.6849 10.5859 14.6578C10.5587 14.6306 10.5434 14.5937 10.5433 14.5553V13.9576C10.0619 13.8616 9.60416 13.6719 9.196 13.3992L8.77313 13.8221C8.74589 13.8492 8.70902 13.8645 8.67058 13.8645C8.63214 13.8645 8.59527 13.8492 8.56803 13.8221L7.72641 12.9805C7.69928 12.9532 7.68405 12.9163 7.68405 12.8779C7.68405 12.8395 7.69928 12.8026 7.72641 12.7754L8.14925 12.3525C7.87659 11.9443 7.68686 11.4865 7.59084 11.0052H6.99316C6.95472 11.0051 6.91787 10.9898 6.89069 10.9626C6.8635 10.9354 6.8482 10.8986 6.84813 10.8601V9.66989C6.8482 9.63145 6.8635 9.5946 6.89069 9.56742C6.91787 9.54024 6.95472 9.52493 6.99316 9.52486H7.59084C7.68687 9.0435 7.8766 8.58571 8.14925 8.17755L7.72638 7.75464C7.69925 7.72741 7.68402 7.69053 7.68402 7.65209C7.68402 7.61365 7.69925 7.57678 7.72638 7.54955L8.56803 6.70792C8.59527 6.6808 8.63214 6.66556 8.67058 6.66556C8.70902 6.66556 8.74589 6.6808 8.77313 6.70792L9.196 7.1308C9.60417 6.85816 10.062 6.66842 10.5433 6.57239V5.97467C10.5434 5.93623 10.5587 5.89938 10.5859 5.8722C10.6131 5.84502 10.6499 5.82971 10.6883 5.82964L10.6883 5.82973ZM10.7632 11.6026C11.3001 11.8113 11.9332 11.6826 12.3443 11.2312C12.6927 10.8486 12.7954 10.3289 12.6617 9.86573L11.8588 10.7474L11.0125 10.5625L10.7495 9.73723L11.5525 8.85555C11.0788 8.76561 10.571 8.91639 10.2226 9.29898C9.81144 9.75042 9.74234 10.3927 10.0003 10.9079L9.27297 11.7079C8.60497 10.779 8.65291 9.47889 9.45409 8.59914C10.3742 7.58883 11.9391 7.51567 12.9494 8.43577C13.9597 9.35586 14.0329 10.9207 13.1128 11.9311C12.3121 12.8103 11.0231 12.9796 10.0363 12.4024L10.7633 11.6027L10.7632 11.6026ZM8.44969 0.746641L10.8813 3.17833C10.9284 3.22536 10.9648 3.27705 10.9904 3.3332H8.77222C8.50931 3.3332 8.29484 3.11877 8.29484 2.85583V0.637609C8.351 0.663266 8.40269 0.699609 8.44969 0.746641ZM5.65872 1.73139L6.02909 2.61248L6.98153 2.69248L6.258 3.31702L6.47625 4.24758L5.65869 3.75245L4.84113 4.24758L5.05938 3.31702L4.33584 2.69248L5.28828 2.61248L5.65872 1.73139ZM2.42622 5.85386C2.35991 5.85386 2.29633 5.82752 2.24944 5.78064C2.20256 5.73375 2.17622 5.67016 2.17622 5.60386C2.17622 5.53756 2.20256 5.47397 2.24944 5.42708C2.29633 5.3802 2.35991 5.35386 2.42622 5.35386H8.89125C8.95755 5.35386 9.02114 5.3802 9.06803 5.42708C9.11491 5.47397 9.14125 5.53756 9.14125 5.60386C9.14125 5.67016 9.11491 5.73375 9.06803 5.78064C9.02114 5.82752 8.95755 5.85386 8.89125 5.85386H2.42622ZM2.80694 13.7346C2.80694 13.8009 2.7806 13.8645 2.73371 13.9114C2.68683 13.9582 2.62324 13.9846 2.55694 13.9846C2.49063 13.9846 2.42705 13.9582 2.38016 13.9114C2.33328 13.8645 2.30694 13.8009 2.30694 13.7346C2.30694 12.0891 3.44534 12.3411 3.64975 13.0854C3.68047 13.1972 3.68928 13.3165 3.66847 13.4349C4.03634 13.3288 4.08369 13.0922 4.09022 13.0336C4.10803 12.7517 4.57856 12.7391 4.59034 13.0309C4.62025 13.4178 5.03397 13.61 5.22406 13.2921C5.44609 12.9209 5.86969 12.5287 6.45659 12.7474C6.48725 12.7588 6.51535 12.7761 6.5393 12.7984C6.56325 12.8207 6.58257 12.8474 6.59618 12.8772C6.60978 12.9069 6.61739 12.9391 6.61857 12.9717C6.61975 13.0044 6.61448 13.037 6.60306 13.0677C6.59165 13.0983 6.57431 13.1264 6.55204 13.1504C6.52976 13.1743 6.50299 13.1937 6.47325 13.2073C6.4435 13.2209 6.41137 13.2285 6.37868 13.2296C6.346 13.2308 6.3134 13.2256 6.28275 13.2141C5.97381 13.099 5.76069 13.3658 5.65178 13.548C5.34734 14.057 4.68041 14.0795 4.31609 13.6327C4.11872 13.8285 3.77847 13.9953 3.19166 13.9844C2.95563 13.9802 2.85666 13.6783 3.04616 13.5362C3.35138 13.3072 3.04763 12.9541 2.96625 13.0187C2.87663 13.0899 2.80694 13.3009 2.80694 13.7345V13.7346Z" fill="#CC7108"/>
    </g>
    <defs>
        <clipPath id="clip0_2318_41789">
            <rect width="16" height="16" fill="white"/>
        </clipPath>
    </defs>
</svg>
